# xmcd
#
# Track frame offsets: 
#        150
#        15123
#        27162
#        44475
#        60461
#        76672
#        89069
#        105513
#        121543
#        139886
#        156102
#        172541
#        183878
#        199220
#        215269
#        238168
#        253459
#        270425
#        282192
#        296160
#        309880
#        329438
#
# Disc length: 4599 seconds
#
# Revision: 0
# Processed by: cddbd v1.5.2PL0 Copyright (c) Steve Scherf et al.
# Submitted via: ExactAudioCopy v1.3
#
DISCID=2711f516
DTITLE=Ariel Chamacho y Los Plebes del Rancho - El Karma (Versión Delu
DTITLE=xe)
DYEAR=2014
DGENRE=Banda
TTITLE0=El Karma
TTITLE1=El Mentado
TTITLE2=Los Talibanes del Prieto
TTITLE3=Te Metiste
TTITLE4=Reflejos del Viejo
TTITLE5=El Toro Encartado
TTITLE6=El Señor de Los Cielos
TTITLE7=El Rey de Corazones
TTITLE8=Secreto Mexicano
TTITLE9=Por No Perderte, Te Perdi
TTITLE10=La Verdad del Hombre
TTITLE11=El Corrido de La Roca
TTITLE12=Arrodillate
TTITLE13=Los Tanates
TTITLE14=El Corrido del Dorian
TTITLE15=El Panu
TTITLE16=50 Mentadas
TTITLE17=El Levantón
TTITLE18=La Bruta (Una Mula Resulto)
TTITLE19=Tú Sabes Que
TTITLE20=Sangre Se Paga Con Sangre
TTITLE21=El Corrido del Güero
EXTD=
EXTT0=
EXTT1=
EXTT2=
EXTT3=
EXTT4=
EXTT5=
EXTT6=
EXTT7=
EXTT8=
EXTT9=
EXTT10=
EXTT11=
EXTT12=
EXTT13=
EXTT14=
EXTT15=
EXTT16=
EXTT17=
EXTT18=
EXTT19=
EXTT20=
EXTT21=
PLAYORDER=
